<svg xmlns="http://www.w3.org/2000/svg" xmlns:xlink="http://www.w3.org/1999/xlink" width="500" zoomAndPan="magnify" viewBox="0 0 375 374.999991" height="500" preserveAspectRatio="xMidYMid meet" version="1.0"><defs><clipPath id="550f1fed5f"><path d="M 69 0 L 305.863281 0 L 305.863281 375 L 69 375 Z M 69 0 " clip-rule="nonzero"/></clipPath></defs><g clip-path="url(#550f1fed5f)"><path fill="#000000" d="M 187.34375 -0.00390625 C 168.382812 -0.0078125 153.382812 15.472656 152.007812 34.582031 L 137.128906 34.582031 C 130.40625 34.582031 125.023438 40.316406 125.023438 46.976562 L 125.023438 55.078125 L 86.609375 55.078125 C 76.882812 55.078125 69.125 63.355469 69.125 73.132812 L 69.125 356.953125 C 69.125 366.730469 76.882812 374.984375 86.609375 374.984375 L 288.097656 374.984375 C 297.824219 374.984375 305.585938 366.730469 305.585938 356.953125 L 305.585938 73.132812 C 305.585938 63.355469 297.824219 55.078125 288.097656 55.078125 L 249.683594 55.078125 L 249.683594 46.976562 C 249.683594 40.316406 244.304688 34.582031 237.578125 34.582031 L 222.703125 34.582031 C 221.324219 15.472656 206.304688 -0.0078125 187.34375 -0.00390625 Z M 187.347656 11.042969 C 200.996094 11.042969 212.195312 22.578125 212.191406 37.238281 C 212.183594 38.019531 212.125 38.808594 212.058594 39.585938 C 211.914062 41.136719 212.425781 42.671875 213.472656 43.824219 C 214.519531 44.972656 216 45.628906 217.554688 45.628906 L 237.578125 45.628906 C 238.144531 45.628906 238.652344 46.011719 238.652344 46.976562 L 238.652344 83.292969 C 238.652344 84.257812 238.144531 84.640625 237.578125 84.640625 L 137.128906 84.640625 C 137.097656 84.640625 137.058594 84.640625 137.027344 84.636719 C 136.992188 84.632812 136.957031 84.628906 136.921875 84.621094 C 136.886719 84.617188 136.855469 84.609375 136.824219 84.597656 C 136.390625 84.476562 136.054688 84.078125 136.054688 83.292969 L 136.054688 46.976562 C 136.054688 46.011719 136.5625 45.628906 137.132812 45.628906 L 157.15625 45.628906 C 158.71875 45.628906 160.207031 44.96875 161.253906 43.8125 C 162.300781 42.652344 162.808594 41.101562 162.652344 39.546875 C 162.574219 38.777344 162.527344 38.015625 162.515625 37.238281 C 162.515625 22.578125 173.695312 11.042969 187.347656 11.042969 Z M 187.34375 23.109375 C 178.796875 23.109375 171.992188 30.371094 171.992188 38.914062 C 171.992188 47.453125 178.796875 54.734375 187.34375 54.734375 C 195.894531 54.734375 202.71875 47.453125 202.71875 38.914062 C 202.71875 30.371094 195.894531 23.109375 187.34375 23.109375 Z M 187.34375 34.160156 C 189.667969 34.160156 191.667969 36.09375 191.667969 38.914062 C 191.667969 41.730469 189.667969 43.664062 187.34375 43.664062 C 185.023438 43.664062 183.023438 41.730469 183.023438 38.914062 C 183.023438 36.09375 185.023438 34.160156 187.34375 34.160156 Z M 86.609375 66.144531 L 125.023438 66.144531 L 125.023438 83.292969 C 125.023438 89.953125 130.40625 95.6875 137.128906 95.6875 L 237.578125 95.6875 C 244.304688 95.6875 249.683594 89.953125 249.683594 83.292969 L 249.683594 66.144531 L 288.097656 66.144531 C 291.648438 66.144531 294.554688 69.035156 294.554688 73.132812 L 294.554688 356.953125 C 294.554688 361.050781 291.648438 363.9375 288.097656 363.9375 L 86.609375 363.9375 C 83.0625 363.9375 80.152344 361.050781 80.152344 356.953125 L 80.152344 73.132812 C 80.152344 69.035156 83.0625 66.144531 86.609375 66.144531 Z M 141.832031 127.085938 C 140.339844 127.074219 138.910156 127.671875 137.863281 128.734375 L 123.929688 142.320312 L 117.492188 136.066406 C 116.082031 134.648438 114.019531 134.101562 112.09375 134.640625 C 110.167969 135.179688 108.683594 136.714844 108.214844 138.660156 C 107.746094 140.605469 108.359375 142.652344 109.824219 144.015625 L 120.105469 153.984375 C 121.097656 154.949219 122.414062 155.503906 123.796875 155.542969 C 125.28125 155.582031 126.722656 155.023438 127.792969 153.984375 L 145.550781 136.660156 C 147.207031 135.121094 147.753906 132.722656 146.9375 130.613281 C 146.117188 128.5 144.09375 127.105469 141.832031 127.085938 Z M 159.328125 144.492188 C 157.320312 144.449219 155.445312 145.5 154.433594 147.242188 C 153.421875 148.980469 153.4375 151.136719 154.472656 152.863281 C 155.503906 154.589844 157.394531 155.617188 159.402344 155.542969 L 261.023438 155.542969 C 263.039062 155.617188 264.933594 154.578125 265.964844 152.839844 C 266.996094 151.101562 266.996094 148.9375 265.964844 147.199219 C 264.933594 145.460938 263.039062 144.421875 261.023438 144.496094 L 159.402344 144.496094 C 159.378906 144.496094 159.351562 144.492188 159.328125 144.492188 Z M 141.832031 180.878906 C 140.339844 180.867188 138.910156 181.460938 137.863281 182.523438 L 123.929688 196.113281 L 117.492188 189.859375 C 116.082031 188.441406 114.019531 187.894531 112.09375 188.433594 C 110.167969 188.972656 108.683594 190.507812 108.214844 192.453125 C 107.746094 194.398438 108.359375 196.445312 109.824219 197.808594 L 120.105469 207.777344 C 121.097656 208.738281 122.414062 209.296875 123.796875 209.335938 C 125.28125 209.375 126.722656 208.8125 127.792969 207.777344 L 145.550781 190.453125 C 147.207031 188.914062 147.753906 186.515625 146.9375 184.40625 C 146.117188 182.292969 144.09375 180.898438 141.832031 180.878906 Z M 159.332031 198.285156 C 157.320312 198.242188 155.445312 199.292969 154.433594 201.03125 C 153.425781 202.773438 153.4375 204.925781 154.472656 206.652344 C 155.503906 208.378906 157.394531 209.40625 159.402344 209.335938 L 261.023438 209.335938 C 263.039062 209.410156 264.9375 208.375 265.96875 206.632812 C 267 204.894531 267 202.730469 265.96875 200.988281 C 264.9375 199.25 263.039062 198.214844 261.023438 198.289062 L 159.402344 198.289062 C 159.378906 198.285156 159.355469 198.285156 159.332031 198.285156 Z M 141.832031 234.671875 C 140.339844 234.660156 138.910156 235.253906 137.863281 236.316406 L 123.929688 249.886719 L 117.492188 243.652344 C 116.085938 242.230469 114.019531 241.683594 112.089844 242.222656 C 110.164062 242.757812 108.679688 244.296875 108.210938 246.246094 C 107.742188 248.191406 108.355469 250.238281 109.824219 251.597656 L 120.105469 261.570312 C 121.097656 262.53125 122.414062 263.089844 123.796875 263.128906 C 125.285156 263.164062 126.726562 262.59375 127.792969 261.550781 L 145.550781 244.25 C 147.207031 242.707031 147.753906 240.308594 146.9375 238.195312 C 146.117188 236.085938 144.09375 234.6875 141.832031 234.671875 Z M 159.328125 252.078125 C 157.320312 252.035156 155.445312 253.085938 154.433594 254.828125 C 153.425781 256.566406 153.4375 258.71875 154.472656 260.445312 C 155.507812 262.171875 157.394531 263.199219 159.402344 263.128906 L 261.023438 263.128906 C 263.039062 263.199219 264.933594 262.164062 265.964844 260.425781 C 266.996094 258.6875 266.996094 256.523438 265.964844 254.785156 C 264.933594 253.046875 263.039062 252.007812 261.023438 252.078125 L 159.402344 252.078125 C 159.378906 252.078125 159.351562 252.078125 159.328125 252.078125 Z M 141.832031 288.464844 C 140.339844 288.453125 138.910156 289.046875 137.863281 290.109375 L 123.929688 303.679688 L 117.492188 297.441406 C 116.085938 296.023438 114.019531 295.476562 112.089844 296.011719 C 110.164062 296.550781 108.679688 298.089844 108.210938 300.035156 C 107.742188 301.980469 108.355469 304.03125 109.824219 305.390625 L 120.105469 315.359375 C 121.097656 316.324219 122.414062 316.882812 123.796875 316.921875 C 125.285156 316.957031 126.726562 316.386719 127.792969 315.34375 L 145.550781 298.039062 C 147.207031 296.5 147.753906 294.101562 146.9375 291.988281 C 146.117188 289.878906 144.09375 288.480469 141.832031 288.464844 Z M 159.402344 305.851562 C 156.351562 305.851562 153.878906 308.332031 153.878906 311.386719 C 153.878906 314.445312 156.351562 316.921875 159.402344 316.921875 L 261.023438 316.921875 C 264.074219 316.921875 266.546875 314.445312 266.546875 311.386719 C 266.546875 308.332031 264.074219 305.851562 261.023438 305.851562 Z M 159.402344 305.851562 " fill-opacity="1" fill-rule="nonzero"/></g></svg>