<svg xmlns="http://www.w3.org/2000/svg" xmlns:xlink="http://www.w3.org/1999/xlink" width="500" zoomAndPan="magnify" viewBox="0 0 375 374.999991" height="500" preserveAspectRatio="xMidYMid meet" version="1.0"><defs><clipPath id="5d94e710d8"><path d="M 5.453125 0 L 369.203125 0 L 369.203125 375 L 5.453125 375 Z M 5.453125 0 " clip-rule="nonzero"/></clipPath><clipPath id="8b6e55244a"><path d="M 5.453125 249 L 128 249 L 128 375 L 5.453125 375 Z M 5.453125 249 " clip-rule="nonzero"/></clipPath><clipPath id="86296d6751"><path d="M 5.453125 241 L 140 241 L 140 375 L 5.453125 375 Z M 5.453125 241 " clip-rule="nonzero"/></clipPath><clipPath id="f6c5eafa5e"><path d="M 19 0 L 369.203125 0 L 369.203125 363 L 19 363 Z M 19 0 " clip-rule="nonzero"/></clipPath></defs><g clip-path="url(#5d94e710d8)"><path stroke-linecap="butt" transform="matrix(2.978467, 0, 0, 2.98125, 1352.748204, -660.007109)" fill="none" stroke-linejoin="miter" d="M -353.999895 232.359561 L -442.999372 321.359822 L -449.084717 344.069465 L -427.484367 338.281992 L -337.781927 248.578115 C -337.781927 248.578115 -329.474907 240.610347 -337.781927 232.360872 C -345.586644 224.607989 -353.614315 231.992685 -353.999895 232.360872 Z M -353.999895 232.359561 " stroke="#000000" stroke-width="4.5" stroke-opacity="1" stroke-miterlimit="4"/></g><g clip-path="url(#8b6e55244a)"><path stroke-linecap="butt" transform="matrix(2.978467, 0, 0, 2.98125, 1352.748204, -660.007109)" fill="none" stroke-linejoin="miter" d="M -424.529564 334.239801 C -424.529564 334.239801 -429.215542 336.214382 -431.357216 333.998711 C -433.49889 331.78304 -432.444447 327.288805 -432.444447 327.288805 C -432.444447 327.288805 -436.24123 329.254214 -437.790108 327.030681 C -439.337674 324.808459 -439.968504 323.534874 -439.146195 321.283826 C -438.322575 319.034088 -438.944225 318.08021 -438.944225 318.08021 " stroke="#000000" stroke-width="2.298" stroke-opacity="1" stroke-miterlimit="4"/></g><g clip-path="url(#86296d6751)"><path stroke-linecap="butt" transform="matrix(2.978467, 0, 0, 2.98125, 1352.748204, -660.007109)" fill="none" stroke-linejoin="miter" d="M -447.409936 341.88 L -442.718712 337.858774 " stroke="#000000" stroke-width="6.25" stroke-opacity="1" stroke-miterlimit="4"/></g><g clip-path="url(#f6c5eafa5e)"><path stroke-linecap="butt" transform="matrix(2.978467, 0, 0, 2.98125, 1352.748204, -660.007109)" fill="none" stroke-linejoin="miter" d="M -432.14018 327.460451 C -427.783388 323.103795 -338.302591 234.963073 -338.302591 234.963073 " stroke="#000000" stroke-width="2.75" stroke-opacity="1" stroke-miterlimit="4"/></g><path stroke-linecap="round" transform="matrix(2.111124, 0.429532, 1.199023, 2.461009, 775.283282, -398.509018)" fill-opacity="1" fill="#000000" fill-rule="nonzero" stroke-linejoin="round" d="M -335.3895 238.289669 C -335.388773 238.581597 -335.39937 238.873914 -335.425449 239.164172 C -335.451529 239.45443 -335.489984 239.743673 -335.543923 240.030857 C -335.595808 240.317682 -335.662175 240.600687 -335.741972 240.881273 C -335.820768 241.160097 -335.912993 241.436504 -336.017699 241.705565 C -336.123406 241.976388 -336.242595 242.241628 -336.372211 242.499165 C -336.501828 242.756701 -336.644926 243.008654 -336.79745 243.251142 C -336.953029 243.49575 -337.118035 243.730893 -337.292467 243.956569 C -337.468953 244.182605 -337.655867 244.400937 -337.85326 244.6084 C -338.047599 244.813742 -338.254418 245.01174 -338.468663 245.196748 C -338.683909 245.383518 -338.90658 245.557298 -339.137676 245.719851 C -339.370827 245.882763 -339.608296 246.03373 -339.853189 246.171708 C -340.100137 246.310045 -340.350402 246.434675 -340.609093 246.548077 C -340.866783 246.659718 -341.128791 246.759414 -341.39517 246.844001 C -341.661549 246.928587 -341.931245 246.999468 -342.204259 247.056642 C -342.477272 247.113816 -342.753603 247.157283 -343.031198 247.186686 C -343.307791 247.214327 -343.586649 247.229665 -343.865769 247.229177 C -344.142836 247.22833 -344.422167 247.21518 -344.699706 247.185845 C -344.978246 247.158271 -345.252941 247.114154 -345.525793 247.057018 C -345.798644 246.999881 -346.068651 246.927962 -346.335761 246.844428 C -346.603924 246.759489 -346.866136 246.660814 -347.122396 246.548402 C -347.38071 246.436349 -347.631018 246.3102 -347.876376 246.172076 C -348.121733 246.033953 -348.360086 245.883496 -348.593488 245.721064 C -348.824836 245.558273 -349.047126 245.382791 -349.261357 245.196379 C -349.476589 245.011729 -349.682762 244.814387 -349.879824 244.607518 C -350.074832 244.400291 -350.262783 244.183896 -350.437515 243.957257 C -350.6143 243.730977 -350.778867 243.496215 -350.932269 243.251569 C -351.086672 243.008684 -351.228856 242.757318 -351.359823 242.499232 C -351.488735 242.240787 -351.607431 241.977385 -351.712854 241.706905 C -351.818278 241.436424 -351.909377 241.160269 -351.989206 240.88056 C -352.069035 240.60085 -352.135539 240.317228 -352.187666 240.031097 C -352.240847 239.743562 -352.28065 239.455279 -352.306076 239.164488 C -352.331503 238.873696 -352.343552 238.582156 -352.340171 238.289511 C -352.342951 237.997942 -352.331302 237.707028 -352.304222 237.415008 C -352.280196 237.125109 -352.239687 236.835507 -352.187802 236.548681 C -352.133863 236.261498 -352.06955 235.978852 -351.990754 235.700028 C -351.910957 235.419441 -351.817679 235.144438 -351.711972 234.873615 C -351.606264 234.602792 -351.49013 234.339672 -351.359513 234.080374 C -351.227843 233.822479 -351.0878 233.572646 -350.932221 233.328038 C -350.778695 233.083789 -350.61469 232.850408 -350.437204 232.622611 C -350.262771 232.396934 -350.074805 232.180005 -349.879465 231.972901 C -349.682072 231.765438 -349.476253 231.569202 -349.261008 231.382432 C -349.046763 231.197424 -348.823091 231.021882 -348.591994 230.859329 C -348.360898 230.696775 -348.121375 230.54545 -347.876481 230.407472 C -347.631588 230.269494 -347.379269 230.144505 -347.123632 230.033223 C -346.864941 229.919821 -346.603934 229.821886 -346.337555 229.7373 C -346.070176 229.650951 -345.798425 229.579712 -345.525412 229.522538 C -345.252398 229.465364 -344.976067 229.421897 -344.699474 229.394256 C -344.42188 229.364853 -344.144023 229.351277 -343.865955 229.350362 C -343.586835 229.35085 -343.308505 229.365762 -343.032019 229.393694 C -342.754479 229.423029 -342.478783 229.465384 -342.203878 229.522162 C -341.931027 229.579299 -341.66102 229.651218 -341.394911 229.736514 C -341.128801 229.821811 -340.86659 229.920486 -340.608276 230.03254 C -340.352016 230.144952 -340.098653 230.26898 -339.853295 230.407104 C -339.608938 230.546989 -339.370585 230.697446 -339.139237 230.860237 C -338.907889 231.023027 -338.684599 231.196747 -338.468314 231.382801 C -338.254083 231.569213 -338.048963 231.765152 -337.851901 231.97202 C -337.654839 232.178889 -337.469942 232.397405 -337.293157 232.623685 C -337.118425 232.850323 -336.951804 233.084726 -336.797402 233.327611 C -336.644 233.572258 -336.502869 233.822221 -336.371902 234.080307 C -336.240936 234.338393 -336.125295 234.603915 -336.019871 234.874396 C -335.914447 235.144876 -335.820293 235.418911 -335.740465 235.69862 C -335.660636 235.97833 -335.596185 236.26231 -335.543005 236.549845 C -335.490878 236.835977 -335.451074 237.124259 -335.425648 237.415051 C -335.400222 237.705843 -335.388173 237.997382 -335.3895 238.289669 Z M -335.3895 238.289669 " stroke="#000000" stroke-width="2.75" stroke-opacity="1" stroke-miterlimit="4"/></svg>