<svg xmlns="http://www.w3.org/2000/svg" xmlns:xlink="http://www.w3.org/1999/xlink" width="500" zoomAndPan="magnify" viewBox="0 0 375 374.999991" height="500" preserveAspectRatio="xMidYMid meet" version="1.0"><defs><g/><clipPath id="6bc34602c0"><path d="M 91.246094 41 L 283.996094 41 L 283.996094 206.464844 L 91.246094 206.464844 Z M 91.246094 41 " clip-rule="nonzero"/></clipPath></defs><g clip-path="url(#6bc34602c0)"><path fill="#000000" d="M 187.621094 41.039062 L 91.246094 127.523438 L 117.53125 127.523438 L 117.53125 127.554688 L 187.621094 64.550781 L 240.1875 111.707031 L 240.1875 188.667969 L 205.144531 188.667969 L 205.144531 162.464844 L 228.195312 162.464844 L 165.71875 107.101562 L 103.242188 162.464844 L 126.292969 162.464844 L 126.292969 206.140625 L 257.710938 206.140625 L 257.710938 127.523438 L 283.996094 127.523438 Z M 187.621094 41.039062 " fill-opacity="1" fill-rule="nonzero"/></g><g fill="#000000" fill-opacity="1"><g transform="translate(9.792534, 287.50958)"><g><path d="M 24.96875 -2.84375 L 11.203125 -29.296875 L 11.203125 0 L 3.578125 0 L 3.578125 -39.828125 L 14.171875 -39.828125 L 25.09375 -18.4375 L 36.015625 -39.828125 L 46.59375 -39.828125 L 46.59375 0 L 38.796875 0 L 38.796875 -29.234375 Z M 24.96875 -2.84375 "/></g></g></g><g fill="#000000" fill-opacity="1"><g transform="translate(66.103632, 287.50958)"><g><path d="M 38.234375 -17.234375 C 38.234375 -14.546875 37.816406 -12.09375 36.984375 -9.875 C 36.148438 -7.65625 34.960938 -5.773438 33.421875 -4.234375 C 31.890625 -2.703125 30.03125 -1.519531 27.84375 -0.6875 C 25.664062 0.144531 23.25 0.5625 20.59375 0.5625 C 17.90625 0.5625 15.46875 0.144531 13.28125 -0.6875 C 11.101562 -1.519531 9.253906 -2.703125 7.734375 -4.234375 C 6.222656 -5.773438 5.046875 -7.644531 4.203125 -9.84375 C 3.367188 -12.039062 2.953125 -14.503906 2.953125 -17.234375 L 2.953125 -39.828125 L 11.203125 -39.828125 L 11.203125 -17.234375 C 11.203125 -14.160156 12.066406 -11.691406 13.796875 -9.828125 C 15.523438 -7.972656 17.8125 -7.046875 20.65625 -7.046875 C 23.5 -7.046875 25.765625 -7.972656 27.453125 -9.828125 C 29.140625 -11.691406 29.984375 -14.160156 29.984375 -17.234375 L 29.984375 -39.828125 L 38.234375 -39.828125 Z M 38.234375 -17.234375 "/></g></g></g><g fill="#000000" fill-opacity="1"><g transform="translate(113.484942, 287.50958)"><g><path d="M 3.578125 -39.828125 L 11.4375 -39.828125 L 31.234375 -14.046875 L 31.234375 -39.828125 L 38.96875 -39.828125 L 38.96875 0 L 31.6875 0 L 11.375 -26.625 L 11.375 0 L 3.578125 0 Z M 3.578125 -39.828125 "/></g></g></g><g fill="#000000" fill-opacity="1"><g transform="translate(162.231319, 287.50958)"><g><path d="M 3.578125 0 L 3.578125 -39.828125 L 11.828125 -39.828125 L 11.828125 0 Z M 3.578125 0 "/></g></g></g><g fill="#000000" fill-opacity="1"><g transform="translate(183.847059, 287.50958)"><g><path d="M 23.5 -7.046875 C 25.582031 -7.046875 27.535156 -7.484375 29.359375 -8.359375 C 31.179688 -9.234375 32.789062 -10.488281 34.1875 -12.125 L 39.59375 -6.765625 C 37.695312 -4.523438 35.28125 -2.742188 32.34375 -1.421875 C 29.40625 -0.0976562 26.378906 0.5625 23.265625 0.5625 C 20.273438 0.5625 17.476562 0.0351562 14.875 -1.015625 C 12.28125 -2.078125 10.035156 -3.519531 8.140625 -5.34375 C 6.242188 -7.164062 4.753906 -9.328125 3.671875 -11.828125 C 2.585938 -14.335938 2.046875 -17.03125 2.046875 -19.90625 C 2.046875 -22.789062 2.59375 -25.492188 3.6875 -28.015625 C 4.789062 -30.535156 6.289062 -32.707031 8.1875 -34.53125 C 10.082031 -36.351562 12.328125 -37.796875 14.921875 -38.859375 C 17.523438 -39.921875 20.304688 -40.453125 23.265625 -40.453125 C 26.453125 -40.453125 29.539062 -39.773438 32.53125 -38.421875 C 35.53125 -37.078125 37.960938 -35.269531 39.828125 -33 L 34.25 -27.484375 C 32.84375 -29.222656 31.191406 -30.554688 29.296875 -31.484375 C 27.398438 -32.421875 25.390625 -32.890625 23.265625 -32.890625 C 21.484375 -32.890625 19.804688 -32.554688 18.234375 -31.890625 C 16.660156 -31.222656 15.300781 -30.3125 14.15625 -29.15625 C 13.019531 -28 12.128906 -26.632812 11.484375 -25.0625 C 10.847656 -23.488281 10.53125 -21.769531 10.53125 -19.90625 C 10.53125 -18.09375 10.859375 -16.394531 11.515625 -14.8125 C 12.179688 -13.238281 13.09375 -11.882812 14.25 -10.75 C 15.40625 -9.613281 16.769531 -8.710938 18.34375 -8.046875 C 19.914062 -7.378906 21.632812 -7.046875 23.5 -7.046875 Z M 23.5 -7.046875 "/></g></g></g><g fill="#000000" fill-opacity="1"><g transform="translate(230.830238, 287.50958)"><g><path d="M 3.578125 0 Z M 3.578125 0 L 3.578125 -39.828125 L 11.828125 -39.828125 L 11.828125 0 Z M 8.875 -52.171875 L 17.75 -52.171875 L 10.078125 -44.78125 L 3.765625 -44.78125 Z M 8.875 -52.171875 "/></g></g></g><g fill="#000000" fill-opacity="1"><g transform="translate(252.445989, 287.50958)"><g><path d="M 3.578125 0 L 3.578125 -39.828125 L 23.546875 -39.828125 C 25.484375 -39.828125 27.273438 -39.515625 28.921875 -38.890625 C 30.578125 -38.265625 31.992188 -37.398438 33.171875 -36.296875 C 34.347656 -35.191406 35.265625 -33.867188 35.921875 -32.328125 C 36.585938 -30.796875 36.921875 -29.125 36.921875 -27.3125 C 36.921875 -25.53125 36.585938 -23.890625 35.921875 -22.390625 C 35.265625 -20.890625 34.335938 -19.585938 33.140625 -18.484375 C 31.941406 -17.390625 30.523438 -16.535156 28.890625 -15.921875 C 27.265625 -15.316406 25.484375 -15.015625 23.546875 -15.015625 L 11.828125 -15.015625 L 11.828125 0 Z M 22.640625 -32.71875 L 11.828125 -32.71875 L 11.828125 -21.84375 L 22.640625 -21.84375 C 24.421875 -21.84375 25.851562 -22.332031 26.9375 -23.3125 C 28.019531 -24.300781 28.5625 -25.613281 28.5625 -27.25 C 28.5625 -28.882812 28.019531 -30.203125 26.9375 -31.203125 C 25.851562 -32.210938 24.421875 -32.71875 22.640625 -32.71875 Z M 22.640625 -32.71875 "/></g></g></g><g fill="#000000" fill-opacity="1"><g transform="translate(297.324683, 287.50958)"><g><path d="M 3.578125 0 L 3.578125 -39.828125 L 11.828125 -39.828125 L 11.828125 0 Z M 3.578125 0 "/></g></g></g><g fill="#000000" fill-opacity="1"><g transform="translate(318.940434, 287.50958)"><g><path d="M 44.203125 -19.90625 C 44.203125 -17.0625 43.648438 -14.378906 42.546875 -11.859375 C 41.453125 -9.335938 39.960938 -7.15625 38.078125 -5.3125 C 36.203125 -3.476562 33.972656 -2.03125 31.390625 -0.96875 C 28.816406 0.09375 26.050781 0.625 23.09375 0.625 C 20.175781 0.625 17.425781 0.09375 14.84375 -0.96875 C 12.269531 -2.03125 10.039062 -3.476562 8.15625 -5.3125 C 6.28125 -7.15625 4.789062 -9.335938 3.6875 -11.859375 C 2.59375 -14.378906 2.046875 -17.0625 2.046875 -19.90625 C 2.046875 -22.75 2.59375 -25.429688 3.6875 -27.953125 C 4.789062 -30.484375 6.28125 -32.664062 8.15625 -34.5 C 10.039062 -36.34375 12.269531 -37.796875 14.84375 -38.859375 C 17.425781 -39.921875 20.175781 -40.453125 23.09375 -40.453125 C 26.050781 -40.453125 28.816406 -39.921875 31.390625 -38.859375 C 33.972656 -37.796875 36.203125 -36.34375 38.078125 -34.5 C 39.960938 -32.664062 41.453125 -30.484375 42.546875 -27.953125 C 43.648438 -25.429688 44.203125 -22.75 44.203125 -19.90625 Z M 35.734375 -19.90625 C 35.734375 -21.769531 35.410156 -23.488281 34.765625 -25.0625 C 34.117188 -26.632812 33.234375 -28 32.109375 -29.15625 C 30.992188 -30.3125 29.65625 -31.222656 28.09375 -31.890625 C 26.539062 -32.554688 24.875 -32.890625 23.09375 -32.890625 C 21.3125 -32.890625 19.648438 -32.554688 18.109375 -31.890625 C 16.578125 -31.222656 15.25 -30.3125 14.125 -29.15625 C 13.007812 -28 12.128906 -26.632812 11.484375 -25.0625 C 10.847656 -23.488281 10.53125 -21.769531 10.53125 -19.90625 C 10.53125 -18.09375 10.847656 -16.390625 11.484375 -14.796875 C 12.128906 -13.203125 13.007812 -11.828125 14.125 -10.671875 C 15.25 -9.515625 16.578125 -8.601562 18.109375 -7.9375 C 19.648438 -7.269531 21.3125 -6.9375 23.09375 -6.9375 C 24.875 -6.9375 26.539062 -7.269531 28.09375 -7.9375 C 29.65625 -8.601562 30.992188 -9.515625 32.109375 -10.671875 C 33.234375 -11.828125 34.117188 -13.203125 34.765625 -14.796875 C 35.410156 -16.390625 35.734375 -18.09375 35.734375 -19.90625 Z M 35.734375 -19.90625 "/></g></g></g><g fill="#000000" fill-opacity="1"><g transform="translate(115.539908, 328.250353)"><g><path d="M 11.984375 -1.421875 L 4.21875 -17.3125 L 4.21875 0 L 2.1875 0 L 2.1875 -19.828125 L 5.234375 -19.828125 L 12.015625 -5.75 L 18.75 -19.828125 L 21.8125 -19.828125 L 21.8125 0 L 19.75 0 L 19.75 -17.34375 Z M 11.984375 -1.421875 "/></g></g></g><g fill="#000000" fill-opacity="1"><g transform="translate(142.580905, 328.250353)"><g><path d="M 2.1875 0 L 2.1875 -19.828125 L 16.375 -19.828125 L 16.375 -17.90625 L 4.359375 -17.90625 L 4.359375 -10.96875 L 12.203125 -10.96875 L 12.203125 -9.0625 L 4.359375 -9.0625 L 4.359375 -1.921875 L 16.484375 -1.921875 L 16.484375 0 Z M 2.1875 0 "/></g></g></g><g fill="#000000" fill-opacity="1"><g transform="translate(163.081887, 328.250353)"><g><path d="M 2.1875 0 L 2.1875 -19.828125 L 4.359375 -19.828125 L 4.359375 -1.953125 L 16.171875 -1.953125 L 16.171875 0 Z M 2.1875 0 "/></g></g></g><g fill="#000000" fill-opacity="1"><g transform="translate(183.243132, 328.250353)"><g><path d="M 2.1875 0 L 2.1875 -19.828125 L 4.359375 -19.828125 L 4.359375 -10.96875 L 15.890625 -10.96875 L 15.890625 -19.828125 L 18.078125 -19.828125 L 18.078125 0 L 15.890625 0 L 15.890625 -9.015625 L 4.359375 -9.015625 L 4.359375 0 Z M 2.1875 0 "/></g></g></g><g fill="#000000" fill-opacity="1"><g transform="translate(206.546984, 328.250353)"><g><path d="M 21.671875 -9.921875 C 21.671875 -8.503906 21.40625 -7.164062 20.875 -5.90625 C 20.34375 -4.644531 19.617188 -3.554688 18.703125 -2.640625 C 17.796875 -1.734375 16.71875 -1.015625 15.46875 -0.484375 C 14.21875 0.046875 12.882812 0.3125 11.46875 0.3125 C 10.050781 0.3125 8.710938 0.046875 7.453125 -0.484375 C 6.203125 -1.015625 5.117188 -1.734375 4.203125 -2.640625 C 3.285156 -3.554688 2.5625 -4.644531 2.03125 -5.90625 C 1.507812 -7.164062 1.25 -8.503906 1.25 -9.921875 C 1.25 -11.335938 1.507812 -12.671875 2.03125 -13.921875 C 2.5625 -15.179688 3.285156 -16.269531 4.203125 -17.1875 C 5.117188 -18.101562 6.203125 -18.820312 7.453125 -19.34375 C 8.710938 -19.875 10.050781 -20.140625 11.46875 -20.140625 C 12.882812 -20.140625 14.21875 -19.875 15.46875 -19.34375 C 16.71875 -18.820312 17.796875 -18.101562 18.703125 -17.1875 C 19.617188 -16.269531 20.34375 -15.179688 20.875 -13.921875 C 21.40625 -12.671875 21.671875 -11.335938 21.671875 -9.921875 Z M 19.46875 -9.921875 C 19.46875 -11.066406 19.257812 -12.144531 18.84375 -13.15625 C 18.425781 -14.164062 17.863281 -15.035156 17.15625 -15.765625 C 16.445312 -16.492188 15.597656 -17.066406 14.609375 -17.484375 C 13.628906 -17.910156 12.582031 -18.125 11.46875 -18.125 C 10.332031 -18.125 9.273438 -17.910156 8.296875 -17.484375 C 7.316406 -17.066406 6.472656 -16.492188 5.765625 -15.765625 C 5.054688 -15.035156 4.492188 -14.164062 4.078125 -13.15625 C 3.660156 -12.144531 3.453125 -11.066406 3.453125 -9.921875 C 3.453125 -8.765625 3.660156 -7.6875 4.078125 -6.6875 C 4.492188 -5.6875 5.054688 -4.816406 5.765625 -4.078125 C 6.472656 -3.335938 7.316406 -2.753906 8.296875 -2.328125 C 9.273438 -1.910156 10.332031 -1.703125 11.46875 -1.703125 C 12.582031 -1.703125 13.628906 -1.910156 14.609375 -2.328125 C 15.597656 -2.753906 16.445312 -3.335938 17.15625 -4.078125 C 17.863281 -4.816406 18.425781 -5.6875 18.84375 -6.6875 C 19.257812 -7.6875 19.46875 -8.765625 19.46875 -9.921875 Z M 19.46875 -9.921875 "/></g></g></g><g fill="#000000" fill-opacity="1"><g transform="translate(232.512132, 328.250353)"><g><path d="M 2.1875 0 L 2.1875 -19.828125 L 10.6875 -19.828125 C 12.601562 -19.828125 14.15625 -19.300781 15.34375 -18.25 C 16.539062 -17.207031 17.140625 -15.835938 17.140625 -14.140625 C 17.140625 -12.835938 16.753906 -11.710938 15.984375 -10.765625 C 15.222656 -9.816406 14.203125 -9.164062 12.921875 -8.8125 L 17.359375 0 L 14.953125 0 L 10.703125 -8.53125 L 4.359375 -8.53125 L 4.359375 0 Z M 10.53125 -17.875 L 4.359375 -17.875 L 4.359375 -10.375 L 10.53125 -10.375 C 11.851562 -10.375 12.921875 -10.71875 13.734375 -11.40625 C 14.546875 -12.09375 14.953125 -13.003906 14.953125 -14.140625 C 14.953125 -15.265625 14.546875 -16.164062 13.734375 -16.84375 C 12.921875 -17.53125 11.851562 -17.875 10.53125 -17.875 Z M 10.53125 -17.875 "/></g></g></g><g fill="#000000" fill-opacity="1"><g transform="translate(253.834148, 328.250353)"><g><path d="M 1.953125 -5.5 L 1.703125 -20.3125 L 3.875 -20.3125 L 3.625 -5.5 Z M 2.796875 0.171875 C 2.398438 0.171875 2.0625 0.03125 1.78125 -0.25 C 1.5 -0.539062 1.359375 -0.882812 1.359375 -1.28125 C 1.359375 -1.675781 1.5 -2.015625 1.78125 -2.296875 C 2.0625 -2.578125 2.398438 -2.71875 2.796875 -2.71875 C 3.203125 -2.71875 3.546875 -2.578125 3.828125 -2.296875 C 4.109375 -2.015625 4.25 -1.675781 4.25 -1.28125 C 4.25 -0.882812 4.109375 -0.539062 3.828125 -0.25 C 3.546875 0.03125 3.203125 0.171875 2.796875 0.171875 Z M 2.796875 0.171875 "/></g></g></g></svg>